<svg width="205" height="71" viewBox="0 0 205 71" fill="none" xmlns="http://www.w3.org/2000/svg">
<g clip-path="url(#clip0_246_123)">
<path d="M50.5938 28.4731L49.526 44.8641C49.4685 45.7476 49.039 46.5778 48.3254 47.1848C47.6118 47.7918 46.6681 48.1297 45.6874 48.1294H27.3126C26.3319 48.1297 25.3882 47.7918 24.6746 47.1848C23.961 46.5778 23.5315 45.7476 23.474 44.8641L22.4063 28.4731M33.0833 34.2544H39.9167M21.7656 28.4731H51.2344C52.2953 28.4731 53.1563 27.6961 53.1563 26.7388V24.4263C53.1563 23.4689 52.2953 22.6919 51.2344 22.6919H21.7656C20.7048 22.6919 19.8438 23.4689 19.8438 24.4263V26.7388C19.8438 27.6961 20.7048 28.4731 21.7656 28.4731Z" stroke="#517517" stroke-width="3" stroke-linecap="round" stroke-linejoin="round"/>
<path d="M49.2988 34.911L51.119 33.2675C51.4984 32.925 52.013 32.7327 52.5497 32.7327C53.0863 32.7327 53.6009 32.925 53.9803 33.2675C54.3598 33.6099 54.5729 34.0743 54.5729 34.5586C54.5729 35.0428 54.3598 35.5072 53.9803 35.8497L38.4769 49.8405C37.9065 50.355 37.2031 50.7331 36.4302 50.9408L33.5332 51.7197L34.3964 49.1054C34.6265 48.4079 35.0455 47.7731 35.6156 47.2583L49.2999 34.911H49.2988ZM49.2988 34.911L52.145 37.4796" stroke="#517517" stroke-width="1.5" stroke-linecap="round" stroke-linejoin="round"/>
</g>
<path d="M70.424 45.9106L61.584 26.8006H64.886L70.606 39.9306L76.352 26.8006H79.628L70.814 45.9106H70.424ZM84.0791 46.1706C83.0217 46.1706 82.0337 45.9193 81.1151 45.4166C80.2137 44.914 79.4857 44.1946 78.9311 43.2586C78.3764 42.3226 78.0991 41.2046 78.0991 39.9046C78.0991 38.6566 78.3331 37.5646 78.8011 36.6286C79.2864 35.6926 79.9624 34.9646 80.8291 34.4446C81.7131 33.9246 82.7617 33.6646 83.9751 33.6646C84.7031 33.6646 85.3617 33.7946 85.9511 34.0546C86.5577 34.2973 87.0604 34.6006 87.4591 34.9646C87.8751 35.3113 88.1524 35.6493 88.2911 35.9786L88.3431 33.9766H91.0211V45.9106H88.3691L88.3171 43.8046C88.1437 44.186 87.8491 44.5586 87.4331 44.9226C87.0344 45.2866 86.5491 45.59 85.9771 45.8326C85.4051 46.058 84.7724 46.1706 84.0791 46.1706ZM84.5471 43.8306C85.1884 43.8306 85.7691 43.6833 86.2891 43.3886C86.8264 43.0766 87.2511 42.6433 87.5631 42.0886C87.8924 41.534 88.0571 40.8753 88.0571 40.1126V39.9306C88.0571 39.1506 87.8924 38.4746 87.5631 37.9026C87.2511 37.3133 86.8264 36.8626 86.2891 36.5506C85.7691 36.2213 85.1884 36.0566 84.5471 36.0566C83.3857 36.0566 82.5104 36.4293 81.9211 37.1746C81.3491 37.92 81.0631 38.8386 81.0631 39.9306C81.0631 41.04 81.3491 41.9673 81.9211 42.7126C82.5104 43.458 83.3857 43.8306 84.5471 43.8306ZM94.4218 45.9106V26.8006H97.2038V45.9106H94.4218ZM100.794 45.9106V33.9766H103.706V45.9106H100.794ZM102.25 31.7406C101.713 31.7406 101.262 31.5586 100.898 31.1946C100.552 30.8306 100.378 30.38 100.378 29.8426C100.378 29.3573 100.552 28.9413 100.898 28.5946C101.262 28.248 101.713 28.0746 102.25 28.0746C102.788 28.0746 103.23 28.248 103.576 28.5946C103.94 28.9413 104.122 29.3573 104.122 29.8426C104.122 30.38 103.94 30.8306 103.576 31.1946C103.23 31.5586 102.788 31.7406 102.25 31.7406ZM112.542 46.1706C111.485 46.1706 110.497 45.9193 109.578 45.4166C108.677 44.914 107.949 44.1946 107.394 43.2586C106.839 42.3226 106.562 41.2046 106.562 39.9046C106.562 38.6393 106.796 37.5473 107.264 36.6286C107.749 35.6926 108.425 34.9646 109.292 34.4446C110.176 33.9246 111.225 33.6646 112.438 33.6646C113.131 33.6646 113.781 33.786 114.388 34.0286C114.995 34.254 115.515 34.5573 115.948 34.9386C116.381 35.32 116.693 35.736 116.884 36.1866L116.754 34.1586V26.8006H119.51V45.9106H116.832L116.78 43.8046C116.607 44.186 116.312 44.5586 115.896 44.9226C115.497 45.2866 115.012 45.59 114.44 45.8326C113.868 46.058 113.235 46.1706 112.542 46.1706ZM113.01 43.8046C113.651 43.8046 114.232 43.6573 114.752 43.3626C115.289 43.0506 115.714 42.6173 116.026 42.0626C116.355 41.508 116.52 40.8493 116.52 40.0866V39.9046C116.52 39.1246 116.355 38.4486 116.026 37.8766C115.714 37.2873 115.289 36.8366 114.752 36.5246C114.232 36.1953 113.651 36.0306 113.01 36.0306C111.849 36.0306 110.973 36.4033 110.384 37.1486C109.812 37.894 109.526 38.8126 109.526 39.9046C109.526 41.014 109.812 41.9413 110.384 42.6866C110.973 43.432 111.849 43.8046 113.01 43.8046ZM132.025 46.0926C130.499 46.0926 129.139 45.8326 127.943 45.3126C126.764 44.7926 125.759 44.082 124.927 43.1806C124.112 42.262 123.488 41.222 123.055 40.0606C122.639 38.882 122.431 37.634 122.431 36.3166C122.431 34.878 122.665 33.5606 123.133 32.3646C123.618 31.1686 124.294 30.1373 125.161 29.2706C126.027 28.3866 127.059 27.702 128.255 27.2166C129.451 26.7313 130.768 26.4886 132.207 26.4886C133.143 26.4886 133.975 26.584 134.703 26.7746C135.431 26.9653 136.029 27.182 136.497 27.4246C136.965 27.65 137.259 27.832 137.381 27.9706L136.107 30.5706C135.639 30.1546 135.058 29.8166 134.365 29.5566C133.689 29.2966 132.891 29.1666 131.973 29.1666C130.777 29.1666 129.693 29.4613 128.723 30.0506C127.769 30.64 127.007 31.472 126.435 32.5466C125.88 33.6213 125.603 34.8953 125.603 36.3686C125.603 37.6686 125.845 38.856 126.331 39.9306C126.816 40.988 127.527 41.8373 128.463 42.4786C129.416 43.12 130.569 43.4406 131.921 43.4406C132.666 43.4406 133.394 43.3453 134.105 43.1546C134.833 42.9466 135.578 42.6086 136.341 42.1406L137.199 44.6106C136.973 44.8186 136.592 45.044 136.055 45.2866C135.517 45.512 134.893 45.7026 134.183 45.8586C133.489 46.0146 132.77 46.0926 132.025 46.0926ZM144.439 46.1706C143.191 46.1706 142.091 45.8933 141.137 45.3386C140.201 44.784 139.473 44.03 138.953 43.0766C138.433 42.1233 138.173 41.066 138.173 39.9046C138.173 38.7606 138.425 37.7206 138.927 36.7846C139.447 35.8313 140.175 35.0773 141.111 34.5226C142.047 33.9506 143.157 33.6646 144.439 33.6646C145.722 33.6646 146.831 33.9506 147.767 34.5226C148.703 35.0773 149.423 35.8313 149.925 36.7846C150.428 37.7206 150.679 38.7606 150.679 39.9046C150.679 41.066 150.419 42.1233 149.899 43.0766C149.397 44.03 148.677 44.784 147.741 45.3386C146.805 45.8933 145.705 46.1706 144.439 46.1706ZM144.517 43.8826C145.557 43.8826 146.355 43.5013 146.909 42.7386C147.481 41.976 147.767 41.0486 147.767 39.9566C147.767 39.2113 147.629 38.544 147.351 37.9546C147.074 37.348 146.675 36.8626 146.155 36.4986C145.653 36.1346 145.055 35.9526 144.361 35.9526C143.685 35.9526 143.105 36.1346 142.619 36.4986C142.134 36.8626 141.753 37.348 141.475 37.9546C141.215 38.544 141.085 39.2113 141.085 39.9566C141.085 40.6846 141.233 41.352 141.527 41.9586C141.822 42.548 142.221 43.016 142.723 43.3626C143.243 43.7093 143.841 43.8826 144.517 43.8826ZM153.424 45.9106V33.9766H156.18L156.206 36.1606C156.518 35.45 157.021 34.8606 157.714 34.3926C158.425 33.9073 159.274 33.6646 160.262 33.6646C161.545 33.6646 162.507 33.9333 163.148 34.4706C163.789 34.9906 164.214 35.736 164.422 36.7066C164.647 37.6773 164.76 38.83 164.76 40.1646V45.9106H161.952V40.2426C161.952 38.856 161.813 37.7986 161.536 37.0706C161.276 36.3426 160.661 35.9786 159.69 35.9786C159.187 35.9786 158.667 36.1346 158.13 36.4466C157.593 36.7586 157.142 37.2093 156.778 37.7986C156.414 38.388 156.232 39.116 156.232 39.9826V45.9106H153.424ZM168.911 45.9106V36.2646H166.805V33.9766H168.911V29.1146L171.745 28.4906V33.9766H174.501V36.2646H171.745V45.9106H168.911ZM176.655 45.9106V33.9766H179.463V36.3166C179.74 35.5366 180.182 34.904 180.789 34.4186C181.413 33.916 182.132 33.6646 182.947 33.6646C183.501 33.6646 183.883 33.7166 184.091 33.8206L183.701 36.6546C183.545 36.5506 183.207 36.4986 182.687 36.4986C182.253 36.4986 181.785 36.594 181.283 36.7846C180.78 36.9753 180.347 37.3133 179.983 37.7986C179.636 38.2666 179.463 38.9253 179.463 39.7746V45.9106H176.655ZM191.158 46.1706C189.91 46.1706 188.809 45.8933 187.856 45.3386C186.92 44.784 186.192 44.03 185.672 43.0766C185.152 42.1233 184.892 41.066 184.892 39.9046C184.892 38.7606 185.143 37.7206 185.646 36.7846C186.166 35.8313 186.894 35.0773 187.83 34.5226C188.766 33.9506 189.875 33.6646 191.158 33.6646C192.441 33.6646 193.55 33.9506 194.486 34.5226C195.422 35.0773 196.141 35.8313 196.644 36.7846C197.147 37.7206 197.398 38.7606 197.398 39.9046C197.398 41.066 197.138 42.1233 196.618 43.0766C196.115 44.03 195.396 44.784 194.46 45.3386C193.524 45.8933 192.423 46.1706 191.158 46.1706ZM191.236 43.8826C192.276 43.8826 193.073 43.5013 193.628 42.7386C194.2 41.976 194.486 41.0486 194.486 39.9566C194.486 39.2113 194.347 38.544 194.07 37.9546C193.793 37.348 193.394 36.8626 192.874 36.4986C192.371 36.1346 191.773 35.9526 191.08 35.9526C190.404 35.9526 189.823 36.1346 189.338 36.4986C188.853 36.8626 188.471 37.348 188.194 37.9546C187.934 38.544 187.804 39.2113 187.804 39.9566C187.804 40.6846 187.951 41.352 188.246 41.9586C188.541 42.548 188.939 43.016 189.442 43.3626C189.962 43.7093 190.56 43.8826 191.236 43.8826ZM200.225 45.9106V26.8006H203.007V45.9106H200.225Z" fill="black"/>
<defs>
<clipPath id="clip0_246_123">
<rect width="41" height="37" fill="white" transform="translate(16 16.9106)"/>
</clipPath>
</defs>
</svg>
